<?xml version="1.0" encoding="utf-8"?>
<!-- Designed by Vexels.com - 2020 All Rights Reserved - https://vexels.com/terms-and-conditions/  -->
<svg version="1.1" id="Capa_1" xmlns="http://www.w3.org/2000/svg" xmlns:xlink="http://www.w3.org/1999/xlink" x="0px" y="0px"
	 viewBox="0 0 1200 1200" enable-background="new 0 0 1200 1200" xml:space="preserve">
<g>
	<path fill="#1877F2" d="M1148.975,417.269H50.94h-0.083c-4.123,62.411,5.815,127.193,47.754,173.891
		c7.034,7.824,17.361,19.241,33.042,28.177V993.42c0,67.937,55.265,123.237,123.2,123.237h683.168
		c67.947,0,123.208-55.299,123.208-123.237V620.602c19.863-9.989,31.958-23.329,37.419-29.411
		C1141.973,543.038,1153.857,479.703,1148.975,417.269z M938.021,1043.349H768.096c0.54-3.62,0.91-7.293,0.91-11.06V776.755
		c0-41.452-33.761-75.168-75.204-75.168H499.08c-41.451,0-75.168,33.716-75.168,75.168v255.534c0,3.766,0.373,7.439,0.902,11.06
		H254.853c-27.521,0-49.895-22.41-49.895-49.93V670.567l-0.159-38.968c41.379-6.165,64.047-31.391,72.137-40.439
		c6.196-6.909,8.246-8.089,8.555-8.235c0,0,9.779,0,9.85,0c0.318,0.181,2.359,1.326,8.571,8.269
		c13.119,14.605,37.51,41.774,87.334,41.774c53.43,0,81.745-31.462,91.091-41.845c6.168-6.873,8.21-8.018,8.528-8.199l9.771-0.036
		c0.361,0.182,2.395,1.397,8.647,8.376c13.151,14.569,37.622,41.704,87.223,41.704c53.43,0,81.757-31.462,91.091-41.845
		c6.18-6.873,8.222-8.018,8.54-8.199c0,0,9.759,0,9.838,0c0.318,0.146,2.363,1.361,8.639,8.34
		c13.155,14.569,37.622,41.704,87.302,41.704c47.853,0,74.87-23.806,91.091-41.809c6.204-6.909,8.258-8.054,8.575-8.235
		c0,0.035,9.973,0.035,9.938,0c0.353,0.181,2.367,1.326,8.607,8.269c11.193,12.465,30.671,34.022,67.133,40.09l0.663,362.135
		C987.924,1020.939,965.55,1043.349,938.021,1043.349z"/>
	<path fill="#1877F2" d="M1136.766,346.216c-4.56-16.969-10.069-33.699-16.432-50.106c-9.771-25.182-21.543-49.598-35-72.954
		c-22.243-38.597-46.471-80.018-84.105-105.384c-32.895-22.171-72.189-34.428-111.88-34.428c-0.028,0-585.674,0-585.674,0
		c-75.919,0-146.499,44.099-179.827,112.324c-25.098,51.401-51.845,98.197-63.8,155.163c-1.164,5.57-2.065,11.399-3.074,17.137
		h0.083h1084.678C1140.178,360.665,1138.676,353.337,1136.766,346.216z"/>
	<path fill="#FFFFFF" d="M1149.059,417.269c-1.299-16.633-3.781-33.103-7.241-49.302h-0.083H57.057
		c-2.82,16.045-5.001,32.51-6.117,49.302h1098.035H1149.059z"/>
</g>
</svg>
